HIERARCHY
ROOT Hips
{
    OFFSET 0.000000 0.000000 0.000000
    CHANNELS 6 Xposition Yposition Zposition Zrotation Xrotation Yrotation
    JOINT Spine
    {
        OFFSET -0.000000 8.339920 0.000000
        CHANNELS 3 Zrotation Xrotation Yrotation
        JOINT Spine1
        {
            OFFSET -0.000000 25.214485 0.000000
            CHANNELS 3 Zrotation Xrotation Yrotation
            JOINT Neck
            {
                OFFSET -0.000000 25.110935 2.282812
                CHANNELS 3 Zrotation Xrotation Yrotation
                JOINT Head
                {
                    OFFSET -0.000000 14.238888 -2.034127
                    CHANNELS 3 Zrotation Xrotation Yrotation
                    End Site
                    {
                        OFFSET -0.000000 25.426584 0.000000
                    }
                }
            }
            JOINT LeftShoulder
            {
                OFFSET 4.025024 23.158985 -0.185822
                CHANNELS 3 Zrotation Xrotation Yrotation
                JOINT LeftArm
                {
                    OFFSET 11.674057 0.000000 0.000000
                    CHANNELS 3 Zrotation Xrotation Yrotation
                    JOINT LeftForeArm
                    {
                        OFFSET 31.688633 0.000000 0.000000
                        CHANNELS 3 Zrotation Xrotation Yrotation
                        JOINT LeftHand
                        {
                            OFFSET 29.704493 0.000000 0.000000
                            CHANNELS 3 Zrotation Xrotation Yrotation
                            End Site
                            {
                                OFFSET 15.255952 0.000000 0.000000
                            }
                        }
                    }
                }
            }
            JOINT RightShoulder
            {
                OFFSET -4.099539 23.158985 -0.185822
                CHANNELS 3 Zrotation Xrotation Yrotation
                JOINT RightArm
                {
                    OFFSET -11.674057 0.000000 0.000000
                    CHANNELS 3 Zrotation Xrotation Yrotation
                    JOINT RightForeArm
                    {
                        OFFSET -31.688633 0.000000 0.000000
                        CHANNELS 3 Zrotation Xrotation Yrotation
                        JOINT RightHand
                        {
                            OFFSET -29.704493 0.000000 0.000000
                            CHANNELS 3 Zrotation Xrotation Yrotation
                            End Site
                            {
                                OFFSET -15.255952 0.000000 0.000000
                            }
                        }
                    }
                }
            }
        }
    }
    JOINT LeftUpLeg
    {
        OFFSET 10.170634 0.000000 0.000000
        CHANNELS 3 Zrotation Xrotation Yrotation
        JOINT LeftLeg
        {
            OFFSET -0.000000 -41.352962 0.000000
            CHANNELS 3 Zrotation Xrotation Yrotation
            JOINT LeftFoot
            {
                OFFSET -0.000000 -47.535004 0.000000
                CHANNELS 3 Zrotation Xrotation Yrotation
                JOINT LeftToeBase
                {
                    OFFSET -0.000000 -6.610912 15.255952
                    CHANNELS 3 Zrotation Xrotation Yrotation
                    End Site
                    {
                        OFFSET -0.000000 0.000000 4.068254
                    }
                }
            }
        }
    }
    JOINT RightUpLeg
    {
        OFFSET -10.170634 0.000000 0.000000
        CHANNELS 3 Zrotation Xrotation Yrotation
        JOINT RightLeg
        {
            OFFSET -0.000000 -41.352962 0.000000
            CHANNELS 3 Zrotation Xrotation Yrotation
            JOINT RightFoot
            {
                OFFSET -0.000000 -47.535004 0.000000
                CHANNELS 3 Zrotation Xrotation Yrotation
                JOINT RightToeBase
                {
                    OFFSET -0.000000 -6.610912 15.255952
                    CHANNELS 3 Zrotation Xrotation Yrotation
                    End Site
                    {
                        OFFSET -0.000000 0.000000 4.068254
                    }
                }
            }
        }
    }
}
MOTION
Frames:    5
Frame Time:    0.008333
29.818165    119.623543    46.603172    -16.716116    -9.495385    93.469124    10.613206    -1.951802    -4.657276    -1.012565    16.867319    -4.688366    -4.726130    25.917759    -5.513562    4.494181    0.058961    -5.545554    11.756732    1.763529    -12.281787    -59.917320    50.948372    -13.629280    14.048341    -20.550552    -27.178293    -14.718096    -17.402248    0.652746    -8.485914    -1.298502    4.773920    57.172386    59.846962    16.598103    -7.022555    -13.987241    24.423843    -7.862464    -12.814679    4.597312    17.218903    -14.472643    14.600902    -1.725958    18.130733    5.302913    -10.457848    26.974598    -9.267182    0.000000    0.000000    0.000000    14.487722    -64.201271    6.784954    7.319995    57.267494    -12.141597    -15.923814    -16.321001    -15.485475    0.000000    0.000000    0.000000    
29.339706    118.958305    46.555042    -16.644388    -9.835496    93.750000    10.883859    -1.822335    -4.681209    -1.014876    16.768864    -4.705156    -4.642884    25.715473    -5.582350    4.356628    0.016478    -5.617883    11.855767    1.671925    -12.356503    -59.688339    50.863243    -13.832887    14.334685    -20.656242    -27.588650    -14.499323    -17.415930    0.870897    -8.392694    -1.115161    4.763729    56.749992    59.702847    16.631338    -6.860185    -13.752823    24.197355    -7.524307    -12.627603    4.807443    17.522829    -14.379437    14.907149    -1.752796    17.299665    6.181293    -9.758388    27.567261    -10.211256    0.000000    0.000000    0.000000    14.476027    -65.177795    6.809926    8.074631    58.300499    -13.100796    -15.952003    -16.755152    -15.552931    0.000000    0.000000    0.000000    
28.857380    118.272102    46.520149    -16.502623    -10.199512    94.046432    11.165054    -1.610748    -4.750062    -1.007608    16.627205    -4.760187    -4.774893    25.599741    -5.565455    4.557367    -0.114814    -5.573223    11.912264    1.610504    -12.373464    -59.551708    50.608913    -13.937880    14.640553    -20.663273    -28.003254    -14.514240    -17.275612    0.700778    -8.452998    -1.263450    4.869064    57.094055    59.603878    16.044880    -6.675936    -13.505033    23.943951    -7.511607    -12.433599    4.833030    17.833858    -14.427844    15.407602    -1.615235    16.894386    5.982550    -9.262035    27.632545    -10.241812    0.000000    0.000000    0.000000    14.523233    -66.084076    6.759620    8.632915    59.330677    -13.761757    -16.044497    -17.163561    -15.738198    0.000000    0.000000    0.000000    
28.392483    117.559837    46.480896    -16.316900    -10.553883    94.341476    11.393724    -1.496153    -4.767488    -0.974495    16.688980    -4.773722    -4.427813    25.478083    -5.751393    4.222441    -0.436543    -5.766209    12.105309    1.457796    -12.415318    -59.490013    50.473011    -14.110734    15.015749    -20.759054    -28.438023    -14.479990    -17.221529    0.680266    -8.428910    -1.249420    4.908967    56.959938    59.521931    15.813876    -6.475914    -13.421416    23.794447    -7.643566    -12.391254    4.618316    18.136971    -14.438745    15.856415    -1.517301    16.502890    5.900743    -8.652990    27.766386    -10.371714    0.000000    0.000000    0.000000    14.542720    -66.954018    7.032176    9.722949    60.284245    -15.041292    -16.147718    -17.620197    -15.853521    0.000000    0.000000    0.000000    
27.932066    116.823105    46.449566    -16.082424    -10.887392    94.700775    11.613411    -1.323077    -4.832613    -0.950358    16.650845    -4.828001    -4.270149    25.580872    -5.847764    4.055885    -1.063337    -5.859244    12.297804    1.446049    -12.457151    -59.312317    50.047756    -14.345178    15.211532    -20.656435    -29.011299    -14.683434    -16.976320    0.557117    -8.371801    -1.217839    4.912990    56.746086    59.470222    15.688482    -6.307342    -13.310378    23.540188    -7.406568    -12.322647    4.668373    18.422588    -14.501594    16.154348    -1.441994    16.264797    5.816794    -8.119081    27.976574    -10.543679    0.000000    0.000000    0.000000    14.447031    -67.850632    6.917448    10.504449    61.368900    -16.000042    -16.289000    -18.039450    -16.019089    0.000000    0.000000    0.000000    
